<svg width="320" height="320" viewBox="0 0 320 320" fill="none" xmlns="http://www.w3.org/2000/svg">
<rect width="320" height="320" fill="black" fill-opacity="0.1"/>
<path d="M162.761 113.333H220C223.682 113.333 226.667 116.318 226.667 120V213.333C226.667 217.015 223.682 220 220 220H100C96.3183 220 93.3335 217.015 93.3335 213.333V106.667C93.3335 102.985 96.3183 100 100 100H149.428L162.761 113.333ZM153.333 167C152.256 166.781 151.141 166.667 150 166.667C140.795 166.667 133.333 174.129 133.333 183.333C133.333 192.538 140.795 200 150 200C159.205 200 166.667 192.538 166.667 183.333V153.333H186.667V140H153.333V167Z" fill="#888786"/>
</svg>
