<svg width="87" height="32" viewBox="0 0 87 32" fill="none" xmlns="http://www.w3.org/2000/svg">
<path d="M16 0.75C19.4307 0.75 22.5967 1.88282 25.1445 3.79479L16 12.9393L6.85545 3.79479C9.40328 1.88282 12.5693 0.75 16 0.75ZM16.5303 14.5303L25.25 5.81066V27.5H26.016C23.3366 29.8355 19.8335 31.25 16 31.25C12.1665 31.25 8.66337 29.8355 5.98405 27.5H6.75V5.81066L15.4697 14.5303L16 15.0607L16.5303 14.5303ZM31.25 16C31.25 20.2281 29.5293 24.0544 26.75 26.8167V5.18335C29.5293 7.94564 31.25 11.7719 31.25 16ZM5.25 26.8167C2.47068 24.0544 0.75 20.2281 0.75 16C0.75 11.7719 2.47068 7.94564 5.25 5.18335V26.8167Z" stroke="black" stroke-width="1.5"/>
<circle cx="16" cy="16" r="3" fill="black"/>
<path d="M41.26 23V8.4H44.22L45.96 14.7L47.76 8.4H50.74V23H48.7V16.48C48.7 15.7333 48.7133 14.9267 48.74 14.06C48.78 13.18 48.8267 12.3133 48.88 11.46C48.9333 10.6067 48.9933 9.83333 49.06 9.14L46.86 16.58H45.04L42.92 9.32C43.04 10.2667 43.1333 11.3533 43.2 12.58C43.2667 13.8067 43.3 15.1067 43.3 16.48V23H41.26ZM57.4922 23.2C56.0922 23.2 55.0122 22.82 54.2522 22.06C53.4922 21.2867 53.1122 20.24 53.1122 18.92V8.4H55.2722V18.9C55.2722 19.6467 55.4589 20.2333 55.8322 20.66C56.2055 21.0867 56.7589 21.3 57.4922 21.3C58.2255 21.3 58.7789 21.0867 59.1522 20.66C59.5255 20.2333 59.7122 19.6467 59.7122 18.9V8.4H61.8722V18.92C61.8722 20.2533 61.4922 21.3 60.7322 22.06C59.9722 22.82 58.8922 23.2 57.4922 23.2ZM69.0444 23.2C67.6044 23.2 66.451 22.82 65.5844 22.06C64.7177 21.3 64.2844 20.26 64.2844 18.94H66.4044C66.4044 19.6733 66.6444 20.2533 67.1244 20.68C67.6044 21.0933 68.2444 21.3 69.0444 21.3C69.831 21.3 70.451 21.0867 70.9044 20.66C71.3577 20.2333 71.5844 19.6667 71.5844 18.96C71.5844 18.4267 71.4377 17.96 71.1444 17.56C70.851 17.16 70.431 16.8867 69.8844 16.74L67.7844 16.18C66.7977 15.9133 66.0177 15.4267 65.4444 14.72C64.8844 14.0133 64.6044 13.1667 64.6044 12.18C64.6044 11.38 64.7777 10.6867 65.1244 10.1C65.4844 9.5 65.991 9.03333 66.6444 8.7C67.2977 8.36667 68.0577 8.2 68.9244 8.2C69.791 8.2 70.551 8.36667 71.2044 8.7C71.871 9.03333 72.3844 9.5 72.7444 10.1C73.1177 10.6867 73.3044 11.3733 73.3044 12.16H71.1844C71.1844 11.5333 70.971 11.0333 70.5444 10.66C70.131 10.2733 69.591 10.08 68.9244 10.08C68.2577 10.08 67.7177 10.2733 67.3044 10.66C66.9044 11.0333 66.7044 11.5267 66.7044 12.14C66.7044 12.6333 66.8377 13.0467 67.1044 13.38C67.3844 13.7133 67.771 13.9467 68.2644 14.08L70.4244 14.66C71.4377 14.9267 72.2377 15.4467 72.8244 16.22C73.411 16.9933 73.7044 17.9067 73.7044 18.96C73.7044 19.8267 73.511 20.58 73.1244 21.22C72.7377 21.8467 72.1977 22.3333 71.5044 22.68C70.811 23.0267 69.991 23.2 69.0444 23.2ZM76.3566 23V8.4H84.9366V10.32H78.4766V14.48H84.2366V16.34H78.4766V21.08H84.9366V23H76.3566Z" fill="black"/>
</svg>
